<svg width="65" height="48" xmlns="http://www.w3.org/2000/svg" xmlns:xlink="http://www.w3.org/1999/xlink" overflow="hidden"><g transform="translate(-257 -295)"><path d="M259.137 337.728 259.137 339.869 318.863 339.869 318.863 337.728 295.923 337.728C295.426 338.395 294.648 338.798 293.795 338.798L285.264 338.798C284.421 338.798 283.633 338.395 283.136 337.728ZM293.58 309.195C293.168 309.617 293.159 310.293 293.58 310.706L299.214 316.368 293.58 322.03C293.159 322.443 293.168 323.119 293.58 323.542 293.787 323.748 294.058 323.851 294.33 323.851 294.611 323.851 294.883 323.748 295.09 323.542L301.473 317.119C301.886 316.706 301.886 316.03 301.473 315.607L295.09 309.204C294.677 308.781 294.002 308.781 293.58 309.195ZM282.912 309.195 276.5 315.607C276.2 315.917 276.107 316.377 276.275 316.772 276.341 316.931 276.444 317.063 276.566 317.176L282.912 323.532C283.119 323.739 283.39 323.842 283.672 323.842 283.944 323.842 284.215 323.739 284.422 323.532 284.843 323.119 284.843 322.443 284.422 322.02L278.769 316.359 284.412 310.706C284.834 310.284 284.834 309.608 284.412 309.195 284 308.781 283.325 308.781 282.912 309.195ZM290.243 308.903C289.652 308.8 289.109 309.195 289.015 309.777L286.887 322.603C286.784 323.185 287.178 323.729 287.759 323.833 287.815 323.842 287.881 323.842 287.937 323.842 288.453 323.842 288.903 323.476 288.987 322.95L291.124 310.134C291.218 309.551 290.824 308.997 290.243 308.903ZM265.532 301.411 312.46 301.411 312.46 331.325 265.532 331.325ZM264.462 299.272C263.881 299.272 263.403 299.751 263.403 300.342L263.403 332.386C263.403 332.977 263.881 333.456 264.462 333.456L313.529 333.456C314.119 333.456 314.597 332.977 314.597 332.386L314.597 300.342C314.597 299.751 314.119 299.272 313.529 299.272ZM263.403 295 314.597 295C316.95 295 318.863 296.915 318.863 299.272L318.863 335.597 319.313 335.597C320.241 335.597 321 336.348 321 337.277L321 340.319C321 341.249 320.241 342 319.313 342L258.687 342C257.759 342 257 341.249 257 340.319L257 337.277C257 336.348 257.759 335.597 258.687 335.597L259.137 335.597 259.137 299.272C259.137 296.915 261.05 295 263.403 295Z" fill="#4472C4" fill-rule="evenodd"/></g></svg>